<svg width="37" height="40" viewBox="0 0 37 40" fill="none" xmlns="http://www.w3.org/2000/svg"><path d="M24.087.955a18.167 18.167 0 00-13.96.973A18.156 18.156 0 00.945 12.486a18.14 18.14 0 00-.013 11.518c.003.031 0 .062.013.094.02.065.052.126.08.185.254.733.54 1.46.893 2.162a18.166 18.166 0 0010.559 9.184c.64.213 1.297.384 1.96.528A3.85 3.85 0 0018.283 40a3.851 3.851 0 003.847-3.845 3.851 3.851 0 00-3.847-3.847 3.851 3.851 0 00-3.75 3.01 17.46 17.46 0 01-1.79-.486 17.324 17.324 0 01-10.074-8.76c-.092-.186-.162-.377-.248-.565.195.055.398.09.605.09a2.145 2.145 0 00.994-.241c3.894-1.986 5.446-6.77 3.46-10.665a7.89 7.89 0 00-3.46-3.46 2.18 2.18 0 00-1.624-.142 17.303 17.303 0 018.105-8.407 17.334 17.334 0 0113.318-.928 17.328 17.328 0 0110.073 8.76c.095.19.184.379.272.57a2.186 2.186 0 00-1.623.147c-3.895 1.986-5.447 6.771-3.46 10.665a7.885 7.885 0 003.46 3.46 2.175 2.175 0 001.673.133 2.176 2.176 0 001.403-1.389 18.165 18.165 0 00-.971-13.96A18.16 18.16 0 0024.087.955zm-5.806 32.193a3.01 3.01 0 013.007 3.006 3.01 3.01 0 01-3.007 3.007 3.01 3.01 0 01-3.007-3.007 3.01 3.01 0 013.007-3.007zM1.818 12.568a1.35 1.35 0 01.789-.673c.345-.11.712-.083 1.032.082a7.04 7.04 0 013.093 3.092 7.038 7.038 0 01.428 5.41 7.045 7.045 0 01-3.521 4.127 1.35 1.35 0 01-1.833-.635 17.284 17.284 0 01-.066-11.22 1.59 1.59 0 01.078-.183zm33.023.235a17.31 17.31 0 01-.02 11.028 1.345 1.345 0 01-.865.857 1.34 1.34 0 01-1.034-.083 7.035 7.035 0 01-3.092-3.092c-1.776-3.482-.39-7.76 3.092-9.536a1.346 1.346 0 01.613-.147c.565 0 1.096.358 1.285.923.008.017.014.034.02.05z" fill="#000" opacity=".5"/></svg>