<svg width="72" height="48" viewBox="0 0 72 48" fill="none" xmlns="http://www.w3.org/2000/svg"><path d="M13.524 28.594c-1.389 1.143-1.667 2.175-1.648 2.906v.037c.055 1.182 1 2.588 2.408 3.038 1.705.525 3.428-.544 4.132-1.856.463-.844 1.667-3.657-2.78-5.625-4.446-1.97-9.633 1.218-9.633 1.218s-1.575-1.125-.741-3.562c-.112 0-1.483.056-2.242 1.237-.482.732-.63 1.782-.167 2.644.334.656.89.956 1.13 1.088-.63.918-2.038 3.243-1.89 6.375.278 6.037 6.133 9.093 6.374 9.225a16.49 16.49 0 002.705.806c1.482.319 4.224.694 11.19-.713a73.182 73.182 0 006.78-1.706s3.762-.881 5.244 1.931c0 0 1.056-5.625-5.503-4.556 1.093-.862 4.688-3.975 5.873-9.431 1.427-6.6-1.723-11.681-2.353-12.638-.444-.9-.704-1.687-.87-2.25-.334-1.218-.723-2.68-.186-4.256.185-.544.445-.956.612-1.219 0 0-.741-1.5-2.965-.375 0 0-.926.62-1.352 2.625a2.279 2.279 0 01-.926-.787c-.704-1.05-.408-2.756.76-4.238.092-.13.222-.3.314-.525.185-.468.148-.9.13-1.125-.26-.393-.556-.487-.667-.506-.593-.15-1.39.375-1.76 1.35-.167.225-.778 1.013-1.223.863-.537-.17-.537-1.594-.445-2.382.075-.656.241-1.725 1.168-2.456.926-.712 2.019-.581 2.297-.544.093.375.333 1.013.908 1.463 1.074.862 2.908.844 3.464-.075.093-.15.278-.525.111-1.219a3.615 3.615 0 00-.704-.75c-.185-.15-.982-.806-2.779-.937-1.019-.075-2.797-.207-4.724.862-1.426.806-2.279 1.894-2.686 2.569 0 0-1.242 2.119-1.242 3.056 1.445.319 2.446 1.106 2.464 1.931 0 .17-.018.375-.148.62-2.964-1.126-5.706-.47-6.65 1.162-.186.3-.52 1.068-.297 2.343-1.594.394-3.65 1.182-4.169 2.832-.018.037-.018.093-.037.13-.389 1.126-.222 2.27.463 2.945.315.3.686.45.982.525-.055.262-.352 2.137.89 3.487.778.844 1.834 1.05 2.26 1.144a5.042 5.042 0 002.02-.019c.333-.056 1.5-.319 2.185-1.35a2.93 2.93 0 00.37-.787c-.462.15-.889.075-1.092-.17-.26-.318-.037-.862-.019-.9.5-1.18 3.946-.75 4.558-.674.704.225 1.556.6 2.408 1.237 2.335 1.707 3.187 4.144 3.465 5.12l-4.688-2.438s-1.352-.507-.796.88c.63 1.557 3.724 3.826 5.132 5.945.518.768 1.13 2.025 1.297 3.975a5.948 5.948 0 01-.871 2.512c-.797 1.256-1.834 1.894-2.334 2.138 0 0 1.723-4.125-2.28-5.007 0 0 2.039 7.37-6.15 9.188-.945.206-4.484 1.05-6.522-.994a4.209 4.209 0 01-.889-1.312c-.37-1.37-.26-2.344-.092-2.982.13-.506.351-.956.13-1.312-.334-.525-1.205-.413-1.427-.394-1.853.188-3.465 2.625-3.465 2.625-.296-.3-2.427-2.531-2.093-5.812.389-4.013 4.038-5.775 4.205-5.85a9.587 9.587 0 012.686-.525 9.582 9.582 0 012.39.225z" stroke="#CC982B" stroke-width=".8" stroke-miterlimit="10"/><path d="M32.551 28.875a14.385 14.385 0 00-2.482-4.913c-3.057-3.88-7.263-4.93-8.652-5.212a20.044 20.044 0 00-4.873-.169c-.87.075-1.686.207-2.408.357-1.093.225-1.408.018-1.5-.15-.186-.375.648-1.144.851-1.35 2.446-2.288 6.466-2.27 7.3-2.25.834.018 2.612.13 4.687.9 1.445.524 3.298 1.218 4.91 3.056 1.815 2.081 2.223 4.387 2.371 5.25a11.706 11.706 0 01-.204 4.481zm-2.704-11.4a.522.522 0 00.518-.525.522.522 0 00-.518-.525.522.522 0 00-.52.525c0 .29.233.525.52.525zm.481 14.081c.41 0 .742-.336.742-.75a.746.746 0 00-.742-.75.746.746 0 00-.74.75c0 .414.331.75.74.75zm27.809-2.962c1.39 1.143 1.667 2.175 1.649 2.906v.037c-.056 1.182-1 2.588-2.409 3.038-1.704.525-3.427-.544-4.131-1.856-.463-.844-1.668-3.657 2.779-5.625 4.446-1.97 9.634 1.218 9.634 1.218s1.575-1.125.74-3.562c.112 0 1.483.056 2.243 1.237.481.732.63 1.782.166 2.644-.333.656-.889.956-1.13 1.088.63.918 2.038 3.243 1.89 6.375-.278 6.037-6.132 9.093-6.373 9.225a16.42 16.42 0 01-2.705.806c-1.482.319-4.224.694-11.19-.713a73.175 73.175 0 01-6.781-1.706s-3.761-.881-5.243 1.931c0 0-1.056-5.625 5.502-4.556-1.093-.862-4.687-3.975-5.873-9.431-1.426-6.6 1.723-11.681 2.353-12.638.445-.9.704-1.687.87-2.25.334-1.218.723-2.68.186-4.256a5.565 5.565 0 00-.611-1.219s.74-1.5 2.964-.375c0 0 .926.62 1.352 2.625.5-.243.779-.562.927-.787.704-1.05.407-2.756-.76-4.238-.092-.13-.222-.3-.315-.525-.185-.468-.148-.9-.13-1.125.26-.393.556-.487.668-.506.592-.15 1.39.375 1.76 1.35.166.225.778 1.013 1.222.863.538-.17.538-1.594.445-2.382-.074-.656-.24-1.725-1.167-2.456-.926-.712-2.02-.581-2.297-.544-.093.375-.334 1.013-.908 1.463-1.075.862-2.909.844-3.465-.075-.092-.15-.278-.525-.111-1.219.148-.206.37-.487.704-.75.185-.15.982-.806 2.78-.937 1.018-.075 2.797-.207 4.723.862 1.427.806 2.28 1.894 2.687 2.569 0 0 1.241 2.119 1.241 3.056-1.445.319-2.445 1.106-2.464 1.931 0 .17.019.375.148.62 2.965-1.126 5.706-.47 6.651 1.162.186.3.52 1.068.297 2.343 1.593.394 3.65 1.182 4.168 2.832.019.037.019.093.037.13.39 1.126.223 2.27-.463 2.945a2.2 2.2 0 01-.982.525c.056.262.352 2.137-.889 3.487-.778.844-1.834 1.05-2.26 1.144a5.042 5.042 0 01-2.02-.019c-.333-.056-1.5-.319-2.186-1.35a2.988 2.988 0 01-.37-.787c.463.15.889.075 1.093-.17.26-.318.037-.862.018-.9-.5-1.18-3.946-.75-4.557-.674-.704.225-1.557.6-2.409 1.237-2.334 1.707-3.187 4.144-3.464 5.12l4.687-2.438s1.352-.507.797.88c-.63 1.557-3.724 3.826-5.132 5.945-.52.768-1.13 2.025-1.297 3.975.055.543.24 1.5.87 2.512.797 1.256 1.835 1.894 2.335 2.138 0 0-1.723-4.125 2.279-5.007 0 0-2.038 7.37 6.15 9.188.945.206 4.484 1.05 6.522-.994.463-.469.741-.956.89-1.312.37-1.37.259-2.344.092-2.982-.13-.506-.352-.956-.13-1.312.334-.525 1.205-.413 1.427-.394 1.853.188 3.464 2.625 3.464 2.625.297-.3 2.427-2.531 2.094-5.812-.39-4.013-4.039-5.775-4.206-5.85a9.588 9.588 0 00-2.686-.525 9.582 9.582 0 00-2.39.225z" stroke="#CC982B" stroke-width=".8" stroke-miterlimit="10"/><path d="M39.11 28.875a14.383 14.383 0 012.483-4.913c3.056-3.88 7.262-4.93 8.651-5.212a20.044 20.044 0 014.873-.169c.87.075 1.686.207 2.409.357 1.093.225 1.408.018 1.5-.15.185-.375-.648-1.144-.852-1.35-2.446-2.288-6.466-2.27-7.3-2.25a14.47 14.47 0 00-4.687.9c-1.445.524-3.298 1.218-4.91 3.056-1.815 2.081-2.223 4.387-2.37 5.25-.316 1.931-.02 3.544.203 4.481zm2.705-11.4a.522.522 0 00.519-.525.522.522 0 00-.52-.525.522.522 0 00-.518.525c0 .29.232.525.519.525zm-.482 14.081c.41 0 .741-.336.741-.75a.746.746 0 00-.74-.75.746.746 0 00-.742.75c0 .414.332.75.741.75z" stroke="#CC982B" stroke-width=".8" stroke-miterlimit="10"/></svg><svg width="119" height="80" viewBox="0 0 119 80" fill="none" xmlns="http://www.w3.org/2000/svg"><path d="M22.54 47.656c-2.315 1.906-2.778 3.625-2.747 4.844v.062c.092 1.97 1.667 4.313 4.014 5.063 2.84.875 5.712-.906 6.886-3.094.772-1.406 2.779-6.094-4.632-9.375-7.41-3.281-16.057 2.031-16.057 2.031S7.38 45.312 8.77 41.25c-.185 0-2.47.094-3.736 2.062-.803 1.22-1.05 2.97-.278 4.407.556 1.093 1.482 1.593 1.884 1.812-1.05 1.531-3.397 5.406-3.15 10.625.463 10.063 10.22 15.156 10.622 15.375 1.02.406 2.563.938 4.508 1.344 2.47.531 7.04 1.156 18.65-1.188 2.841-.562 6.732-1.468 11.302-2.843 0 0 6.268-1.47 8.738 3.218 0 0 1.76-9.375-9.17-7.593 1.822-1.438 7.812-6.625 9.788-15.72 2.378-11-2.872-19.468-3.922-21.062a23.192 23.192 0 01-1.45-3.75c-.557-2.03-1.205-4.468-.31-7.093.31-.907.742-1.594 1.02-2.032 0 0-1.236-2.5-4.941-.625 0 0-1.544 1.032-2.254 4.375-.834-.406-1.297-.937-1.544-1.312-1.173-1.75-.68-4.594 1.266-7.063.154-.218.37-.5.525-.875.309-.78.247-1.5.216-1.875-.432-.656-.926-.812-1.112-.843-.988-.25-2.315.625-2.933 2.25-.278.375-1.297 1.687-2.038 1.437-.895-.281-.895-2.656-.741-3.969.123-1.093.401-2.875 1.945-4.093 1.544-1.188 3.366-.97 3.83-.907.154.625.555 1.688 1.512 2.438 1.791 1.437 4.848 1.406 5.774-.125.155-.25.464-.875.186-2.031a6.03 6.03 0 00-1.174-1.25c-.308-.25-1.636-1.344-4.631-1.563-1.699-.125-4.663-.344-7.874 1.438C36.9 5.562 35.48 7.375 34.8 8.499c0 0-2.068 3.532-2.068 5.095 2.408.53 4.075 1.843 4.106 3.218 0 .282-.03.625-.247 1.032-4.94-1.875-9.51-.782-11.085 1.937-.309.5-.864 1.781-.494 3.906-2.655.657-6.083 1.97-6.947 4.72-.031.062-.031.155-.062.218-.649 1.875-.37 3.781.772 4.906.525.5 1.142.75 1.636.875-.092.438-.586 3.563 1.482 5.813 1.297 1.406 3.057 1.75 3.768 1.906a8.404 8.404 0 003.365-.031c.556-.094 2.501-.532 3.644-2.25.309-.47.494-.907.617-1.313-.772.25-1.482.125-1.821-.281-.433-.531-.062-1.438-.031-1.5.833-1.969 6.577-1.25 7.596-1.125 1.173.375 2.593 1 4.014 2.062 3.89 2.844 5.31 6.907 5.774 8.532l-7.812-4.063s-2.254-.844-1.328 1.469c1.05 2.594 6.207 6.375 8.553 9.906.865 1.281 1.884 3.375 2.162 6.625a9.904 9.904 0 01-1.452 4.188c-1.327 2.093-3.056 3.156-3.89 3.562 0 0 2.871-6.875-3.798-8.344 0 0 3.397 12.282-10.252 15.313-1.574.344-7.472 1.75-10.869-1.656a7.014 7.014 0 01-1.482-2.188c-.617-2.281-.432-3.906-.154-4.969.216-.843.587-1.593.216-2.187-.556-.875-2.007-.688-2.378-.656-3.087.312-5.774 4.375-5.774 4.375-.494-.5-4.045-4.22-3.489-9.688.648-6.687 6.731-9.625 7.01-9.75a15.978 15.978 0 014.477-.875c1.574-.062 2.964.156 3.983.375z" stroke="#CC982B" stroke-miterlimit="10"/><path d="M54.252 48.125c-.617-2.156-1.79-5.188-4.137-8.188-5.095-6.468-12.105-8.218-14.42-8.687a33.407 33.407 0 00-8.121-.282 34.28 34.28 0 00-4.014.594c-1.822.375-2.347.031-2.502-.25-.308-.625 1.081-1.906 1.42-2.25 4.077-3.812 10.777-3.781 12.167-3.75 1.39.031 4.354.219 7.812 1.5 2.408.875 5.496 2.031 8.183 5.094 3.026 3.469 3.705 7.313 3.952 8.75.494 3.219.03 5.906-.34 7.469zm-4.508-19a.87.87 0 00.865-.875.87.87 0 00-.865-.875.87.87 0 00-.864.875.87.87 0 00.864.875zm.803 23.468c.683 0 1.235-.56 1.235-1.25s-.552-1.25-1.235-1.25c-.682 0-1.235.56-1.235 1.25s.553 1.25 1.235 1.25zm46.348-4.937c2.316 1.906 2.779 3.625 2.748 4.844v.062c-.093 1.97-1.667 4.313-4.014 5.063-2.84.875-5.713-.906-6.886-3.094-.772-1.406-2.779-6.094 4.632-9.375 7.41-3.281 16.056 2.031 16.056 2.031s2.625-1.875 1.235-5.937c.186 0 2.471.094 3.737 2.062.803 1.22 1.05 2.97.278 4.407-.556 1.093-1.483 1.593-1.884 1.812 1.05 1.531 3.397 5.406 3.15 10.625-.464 10.063-10.221 15.156-10.622 15.375a27.364 27.364 0 01-4.509 1.344c-2.47.531-7.04 1.156-18.65-1.188-2.84-.562-6.731-1.468-11.301-2.843 0 0-6.268-1.47-8.739 3.218 0 0-1.76-9.375 9.171-7.593-1.822-1.438-7.812-6.625-9.788-15.72-2.378-11 2.871-19.468 3.921-21.062a23.192 23.192 0 001.451-3.75c.556-2.03 1.205-4.468.31-7.093-.31-.907-.742-1.594-1.02-2.032 0 0 1.235-2.5 4.94-.625 0 0 1.545 1.032 2.255 4.375.834-.406 1.297-.937 1.544-1.312 1.173-1.75.68-4.594-1.266-7.063-.155-.218-.37-.5-.525-.875-.309-.78-.247-1.5-.216-1.875.432-.656.926-.812 1.111-.843.988-.25 2.316.625 2.934 2.25.278.375 1.297 1.687 2.038 1.437.895-.281.895-2.656.74-3.969-.123-1.093-.4-2.875-1.945-4.093-1.544-1.188-3.365-.97-3.829-.907-.154.625-.555 1.688-1.513 2.438-1.79 1.437-4.847 1.406-5.774-.125-.154-.25-.463-.875-.185-2.031a6.025 6.025 0 011.173-1.25c.31-.25 1.637-1.344 4.632-1.563 1.698-.125 4.663-.344 7.874 1.438 2.378 1.343 3.798 3.156 4.477 4.28 0 0 2.07 3.532 2.07 5.095-2.41.53-4.077 1.843-4.108 3.218 0 .282.031.625.247 1.032 4.94-1.875 9.51-.782 11.086 1.937.308.5.864 1.781.494 3.906 2.655.657 6.083 1.97 6.947 4.72.031.062.031.155.062.218.648 1.875.37 3.781-.772 4.906-.525.5-1.143.75-1.637.875.093.438.587 3.563-1.482 5.813-1.297 1.406-3.057 1.75-3.767 1.906a8.404 8.404 0 01-3.365-.031c-.556-.094-2.502-.532-3.644-2.25a4.976 4.976 0 01-.618-1.313c.772.25 1.483.125 1.822-.281.432-.531.062-1.438.031-1.5-.834-1.969-6.577-1.25-7.596-1.125-1.173.375-2.594 1-4.014 2.062-3.89 2.844-5.311 6.907-5.774 8.532l7.812-4.063s2.254-.844 1.328 1.469c-1.05 2.594-6.207 6.375-8.554 9.906-.864 1.281-1.883 3.375-2.161 6.625a9.91 9.91 0 001.451 4.188c1.328 2.093 3.057 3.156 3.89 3.562 0 0-2.87-6.875 3.799-8.344 0 0-3.397 12.282 10.251 15.313 1.575.344 7.473 1.75 10.87-1.656a7.04 7.04 0 001.482-2.188c.617-2.281.432-3.906.154-4.969-.216-.843-.587-1.593-.216-2.187.556-.875 2.007-.688 2.377-.656 3.088.312 5.775 4.375 5.775 4.375.494-.5 4.045-4.22 3.489-9.688-.649-6.687-6.732-9.625-7.01-9.75a15.968 15.968 0 00-4.477-.875c-1.575-.062-2.964.156-3.983.375z" stroke="#CC982B" stroke-miterlimit="10"/><path d="M65.183 48.125c.618-2.156 1.791-5.188 4.138-8.188 5.095-6.468 12.104-8.218 14.42-8.687a33.408 33.408 0 018.12-.282 34.32 34.32 0 014.015.594c1.822.375 2.347.031 2.501-.25.309-.625-1.08-1.906-1.42-2.25-4.076-3.812-10.777-3.781-12.166-3.75-1.39.031-4.354.219-7.812 1.5-2.409.875-5.497 2.031-8.183 5.094-3.026 3.469-3.706 7.313-3.953 8.75-.524 3.219-.03 5.906.34 7.469zm4.509-19a.87.87 0 00.864-.875.87.87 0 00-.864-.875.87.87 0 00-.865.875.87.87 0 00.865.875zm-.803 23.468c.682 0 1.235-.56 1.235-1.25s-.553-1.25-1.235-1.25-1.236.56-1.236 1.25.553 1.25 1.236 1.25z" stroke="#CC982B" stroke-miterlimit="10"/></svg>