<svg width="21" height="21" viewBox="0 0 21 21" fill="none" xmlns="http://www.w3.org/2000/svg"><path d="M13.714 10.429a3.435 3.435 0 01-3.428 3.428 3.435 3.435 0 01-3.429-3.428A3.435 3.435 0 0110.286 7a3.435 3.435 0 013.428 3.429zm1.848 0a5.27 5.27 0 00-5.276-5.277 5.27 5.27 0 00-5.277 5.277 5.27 5.27 0 005.277 5.276 5.27 5.27 0 005.277-5.276zm1.447-5.492a1.23 1.23 0 00-1.232-1.232 1.23 1.23 0 00-1.232 1.232c0 .684.549 1.233 1.232 1.233a1.23 1.23 0 001.232-1.232zm-6.723-2.946c1.5 0 4.714-.12 6.067.415a3.29 3.29 0 011.178.777c.362.362.59.71.777 1.179.536 1.352.415 4.567.415 6.067s.12 4.714-.415 6.066a3.288 3.288 0 01-.777 1.18 3.29 3.29 0 01-1.178.776c-1.353.536-4.567.415-6.067.415s-4.715.12-6.067-.415a3.289 3.289 0 01-1.179-.777 3.288 3.288 0 01-.777-1.178c-.535-1.353-.415-4.567-.415-6.067s-.12-4.715.415-6.067c.188-.47.416-.817.777-1.179a3.28 3.28 0 011.179-.777c1.352-.535 4.567-.415 6.067-.415zM20.57 10.43c0-1.42.014-2.826-.067-4.246-.08-1.647-.455-3.107-1.66-4.312C17.638.665 16.179.29 14.53.21 13.11.13 11.704.143 10.285.143S7.46.129 6.04.21C4.393.29 2.933.665 1.728 1.87.522 3.077.148 4.537.067 6.184-.013 7.603 0 9.009 0 10.429s-.013 2.825.067 4.245c.08 1.647.455 3.107 1.66 4.313 1.206 1.205 2.666 1.58 4.313 1.66 1.42.08 2.826.067 4.246.067 1.42 0 2.826.014 4.245-.067 1.648-.08 3.107-.455 4.313-1.66 1.205-1.206 1.58-2.666 1.66-4.313.08-1.42.067-2.826.067-4.245z" fill="#000"/></svg>