<svg width="19" height="20" viewBox="0 0 19 20" fill="none" xmlns="http://www.w3.org/2000/svg"><path d="M12.571 10.143a3.149 3.149 0 01-3.142 3.143 3.149 3.149 0 01-3.143-3.143A3.149 3.149 0 019.429 7a3.149 3.149 0 013.142 3.143zm1.695 0a4.83 4.83 0 00-4.837-4.837 4.83 4.83 0 00-4.837 4.837 4.83 4.83 0 004.837 4.837 4.83 4.83 0 004.837-4.837zm1.325-5.034c0-.626-.503-1.13-1.129-1.13s-1.13.504-1.13 1.13c0 .626.504 1.13 1.13 1.13.626 0 1.13-.504 1.13-1.13zM9.43 2.41c1.375 0 4.321-.111 5.561.38.43.172.749.38 1.08.712.332.332.54.65.712 1.08.491 1.24.38 4.187.38 5.562s.111 4.321-.38 5.561c-.172.43-.38.75-.712 1.08-.331.332-.65.54-1.08.713-1.24.49-4.186.38-5.561.38s-4.322.11-5.562-.38a3.015 3.015 0 01-1.08-.712 3.015 3.015 0 01-.712-1.08c-.491-1.24-.38-4.187-.38-5.562s-.111-4.322.38-5.562c.172-.43.38-.748.712-1.08.331-.331.65-.54 1.08-.712 1.24-.491 4.187-.38 5.562-.38zm9.428 7.734c0-1.301.012-2.59-.061-3.892-.074-1.51-.418-2.848-1.523-3.953C16.17 1.193 14.83.849 13.32.776 12.02.702 10.73.714 9.43.714c-1.302 0-2.59-.012-3.892.062-1.51.073-2.848.417-3.953 1.522S.135 4.741.06 6.251C-.012 7.552 0 8.841 0 10.143c0 1.301-.012 2.59.061 3.892.074 1.51.418 2.848 1.523 3.953s2.443 1.448 3.953 1.522c1.301.074 2.59.061 3.892.061 1.3 0 2.59.013 3.891-.061 1.51-.074 2.849-.417 3.953-1.522 1.105-1.105 1.45-2.443 1.523-3.953.073-1.302.061-2.59.061-3.892z" fill="#CC982B"/></svg>