<svg width="18" height="17" viewBox="0 0 18 17" fill="none" xmlns="http://www.w3.org/2000/svg"><path d="M16.688 12.857H1.313L1 15.652a.588.588 0 00.143.446.595.595 0 00.428.188H16.43c.16 0 .321-.072.428-.188a.588.588 0 00.143-.446l-.313-2.795zm-.83-7.49a.578.578 0 00-.572-.51H13V6a1.14 1.14 0 01-1.143 1.143A1.14 1.14 0 0110.714 6V4.857H7.286V6a1.14 1.14 0 01-1.143 1.143A1.14 1.14 0 015 6V4.857H2.714a.578.578 0 00-.571.51l-.768 6.919h15.25l-.768-6.92zm-3.43-1.653a3.43 3.43 0 00-6.857 0V6c0 .313.26.571.572.571A.575.575 0 006.714 6V3.714A2.29 2.29 0 019 1.43a2.29 2.29 0 012.286 2.285V6c0 .313.259.571.571.571A.575.575 0 0012.43 6V3.714z" fill="#000"/></svg>