<svg   viewBox="0 0 14 12" fill="none" xmlns="http://www.w3.org/2000/svg">
<path d="M13.7143 10.2857C13.7143 9.97321 13.4554 9.71429 13.1429 9.71429H0.571429C0.258929 9.71429 0 9.97321 0 10.2857V11.4286C0 11.7411 0.258929 12 0.571429 12H13.1429C13.4554 12 13.7143 11.7411 13.7143 11.4286V10.2857ZM13.7143 5.71429C13.7143 5.40179 13.4554 5.14286 13.1429 5.14286H0.571429C0.258929 5.14286 0 5.40179 0 5.71429V6.85714C0 7.16964 0.258929 7.42857 0.571429 7.42857H13.1429C13.4554 7.42857 13.7143 7.16964 13.7143 6.85714V5.71429ZM13.7143 1.14286C13.7143 0.830357 13.4554 0.571428 13.1429 0.571428H0.571429C0.258929 0.571428 0 0.830357 0 1.14286V2.28571C0 2.59821 0.258929 2.85714 0.571429 2.85714H13.1429C13.4554 2.85714 13.7143 2.59821 13.7143 2.28571V1.14286Z" fill="black"/>
</svg>
