<svg width="22" height="18" viewBox="0 0 22 18" fill="none" xmlns="http://www.w3.org/2000/svg"><path d="M21.696 2.893a8.673 8.673 0 01-2.49.67 4.314 4.314 0 001.901-2.384 8.515 8.515 0 01-2.745 1.044A4.316 4.316 0 0015.2.857a4.324 4.324 0 00-4.326 4.326c0 .335.04.67.107.991a12.296 12.296 0 01-8.92-4.527 4.294 4.294 0 00-.589 2.183c0 1.5.764 2.826 1.929 3.603a4.357 4.357 0 01-1.956-.55v.054a4.326 4.326 0 003.47 4.246c-.362.094-.75.147-1.14.147-.28 0-.548-.026-.816-.067a4.333 4.333 0 004.044 3 8.663 8.663 0 01-5.37 1.849c-.362 0-.696-.014-1.045-.054A12.224 12.224 0 007.232 18c7.955 0 12.308-6.59 12.308-12.308 0-.188 0-.375-.013-.563a9.3 9.3 0 002.17-2.236z" fill="#000"/></svg>