<svg width="17" height="21" viewBox="0 0 17 21" fill="none" xmlns="http://www.w3.org/2000/svg"><path d="M10.837 14.741c0-.491-.145-.748-.435-.748-.168 0-.335.078-.502.246v3.36c.167.167.334.245.502.245.29 0 .435-.246.435-.748v-2.355zm3.772.011c0-.502-.167-.759-.502-.759-.335 0-.502.257-.502.76v.513h1.004v-.514zM3.83 12.32v6.35H2.711v-6.35H1.54v-1.05h3.482v1.05H3.828zm3.213 6.35v-.602c-.401.458-.78.68-1.138.68-.324 0-.558-.133-.647-.412-.056-.168-.09-.424-.09-.815v-4.364h.994v4.063c0 .234 0 .357.01.39.023.157.101.235.235.235.201 0 .413-.157.636-.469v-4.219h.994v5.514h-.994zm4.788-1.651c0 .513-.022.882-.1 1.116-.123.402-.402.614-.793.614-.357 0-.703-.201-1.037-.614v.536h-.994v-7.4H9.9v2.422c.323-.402.67-.603 1.037-.603.391 0 .67.212.793.625.078.223.1.592.1 1.105v2.199zm3.773-.112c0 .324 0 .547-.023.648a1.29 1.29 0 01-.234.602c-.268.39-.68.592-1.205.592s-.916-.19-1.206-.57c-.212-.267-.323-.703-.323-1.294v-1.93c0-.592.1-1.017.312-1.296.29-.379.68-.569 1.194-.569.502 0 .893.19 1.183.57.201.278.302.703.302 1.294v1.15h-1.998v.97c0 .514.167.77.513.77.246 0 .39-.133.447-.401.01-.056.022-.28.022-.68h1.016v.144zM8.817 6.716c0 .514-.145.782-.48.782-.324 0-.48-.268-.48-.781V4.373c0-.514.156-.77.48-.77.335 0 .48.256.48.77v2.344zm8.024 8.382c0-1.294 0-2.656-.29-3.906a2.1 2.1 0 00-1.785-1.63c-2.054-.223-4.13-.223-6.195-.223-2.064 0-4.14 0-6.183.223-.87.101-1.584.748-1.796 1.63-.28 1.25-.29 2.612-.29 3.906 0 1.284 0 2.656.29 3.906.2.882.926 1.53 1.785 1.619 2.054.234 4.13.234 6.194.234 2.065 0 4.141 0 6.195-.234.859-.09 1.573-.737 1.785-1.619.28-1.25.29-2.622.29-3.906zM5.704.858l-.759 2.934L4.152.857H2.969c.234.692.48 1.395.725 2.087.357 1.038.58 1.82.681 2.366v3.025h1.116V5.31L6.841.857H5.704zm4.13 3.716c0-.592-.1-1.027-.313-1.306-.279-.38-.67-.57-1.183-.57-.502 0-.893.19-1.172.57-.212.279-.312.714-.312 1.306v1.953c0 .591.1 1.027.312 1.317.28.38.67.569 1.172.569.513 0 .904-.19 1.183-.57.212-.278.313-.725.313-1.316V4.574zm3.738-1.808h-1.015v4.252c-.223.324-.435.48-.636.48-.134 0-.212-.09-.235-.246-.01-.022-.01-.156-.01-.39V2.766h-1.017v4.397c0 .402.034.67.09.837.1.279.335.413.658.413.369 0 .748-.223 1.15-.692v.614h1.015v-5.57z" fill="#000"/></svg>