<svg width="37" height="40" viewBox="0 0 37 40" fill="none" xmlns="http://www.w3.org/2000/svg">
    <g opacity="0.5">

<path d="M24.0873 0.955394C19.4564 -0.595077 14.4997 -0.249698 10.1274 1.92806C5.75604 4.10581 2.49455 7.8555 0.94501 12.4864C-0.323557 16.2753 -0.302087 20.2779 0.931942 24.0043C0.934742 24.0351 0.932875 24.0659 0.94501 24.0976C0.965546 24.163 0.997284 24.2237 1.02435 24.2834C1.27919 25.0162 1.56576 25.7424 1.91767 26.4453C4.09543 30.8157 7.84512 34.0772 12.4769 35.6286C13.1173 35.8424 13.7744 36.0132 14.4363 36.157C14.4372 38.2759 16.1631 40 18.284 40C20.4038 40 22.1307 38.275 22.1307 36.1551C22.1307 34.0333 20.4038 32.3083 18.284 32.3083C16.4497 32.3083 14.9188 33.5993 14.5333 35.3187C13.9294 35.1852 13.3273 35.0284 12.7439 34.8324C8.32585 33.3538 4.74884 30.2435 2.67004 26.0719C2.57763 25.8861 2.50762 25.6948 2.42174 25.5072C2.61683 25.5622 2.82032 25.5968 3.02662 25.5968C3.25718 25.5968 3.49148 25.5604 3.72111 25.482C3.82379 25.4474 3.92554 25.4054 4.02075 25.3559C7.91513 23.3705 9.46747 18.5856 7.48107 14.6912C6.71657 13.1921 5.51895 11.9963 4.02168 11.2309C3.49801 10.9639 2.9174 10.9322 2.39654 11.089C4.04315 7.44011 6.86966 4.49133 10.5017 2.68229C14.6724 0.605348 19.4022 0.274905 23.8203 1.75443C28.2374 3.23303 31.8144 6.34424 33.8932 10.5149C33.9884 10.7035 34.0771 10.893 34.1648 11.0834C33.7467 10.9592 33.2865 10.9555 32.8421 11.1049C32.7395 11.1394 32.6368 11.1814 32.5416 11.2309C28.6472 13.2173 27.0949 18.0022 29.0822 21.8956C29.8467 23.3938 31.0443 24.5924 32.5416 25.3559C33.0643 25.6238 33.6589 25.6696 34.2153 25.4894C34.7725 25.3093 35.2262 24.9228 35.4932 24.3991C35.5436 24.3021 35.5837 24.2022 35.6182 24.1004C37.1687 19.4696 36.8252 14.5129 34.6465 10.1397C32.4678 5.76643 28.7181 2.50586 24.0873 0.955394ZM18.2812 33.1475C19.938 33.1475 21.2878 34.4963 21.2878 36.1542C21.2878 37.812 19.939 39.1608 18.2812 39.1608C16.6233 39.1608 15.2736 37.812 15.2736 36.1542C15.2736 34.4963 16.6233 33.1475 18.2812 33.1475ZM1.81779 12.5676C1.98208 12.2446 2.26398 12.0066 2.60656 11.8946C2.95194 11.7844 3.31879 11.8124 3.63896 11.9767C4.97941 12.66 6.04822 13.7297 6.73151 15.0693C7.59309 16.756 7.74431 18.6761 7.15996 20.4786C6.57562 22.2802 5.32479 23.7457 3.63896 24.6064C3.57922 24.6353 3.51762 24.6614 3.45414 24.6829C2.79699 24.9032 2.09316 24.5849 1.80566 23.9716C0.548291 20.3535 0.502552 16.4452 1.74032 12.7515C1.76272 12.6889 1.78792 12.6264 1.81779 12.5676ZM34.8407 12.8028C36.0308 16.3677 36.0355 20.2033 34.8211 23.8307C34.8005 23.8923 34.7725 23.9567 34.7436 24.0146C34.5793 24.3375 34.2983 24.5765 33.9558 24.6876C33.6113 24.8005 33.2445 24.7697 32.9224 24.6054C31.582 23.9222 30.5132 22.8533 29.8299 21.5129C28.0535 18.0311 29.4397 13.7531 32.9224 11.9767C32.9812 11.9459 33.0438 11.9207 33.1072 11.8992C33.2491 11.8516 33.3938 11.8292 33.5357 11.8292C34.1004 11.8292 34.6306 12.1877 34.8201 12.7533C34.8276 12.7701 34.8341 12.787 34.8407 12.8028Z" fill="black"/>
    </g>
</svg>
