<svg width="72" height="48" viewBox="0 0 72 48" fill="none" xmlns="http://www.w3.org/2000/svg">
<path d="M13.5245 28.5937C12.135 29.7374 11.8571 30.7687 11.8756 31.4999C11.8756 31.4999 11.8756 31.5187 11.8756 31.5374C11.9312 32.7187 12.8761 34.1249 14.2841 34.5749C15.9886 35.0999 17.7116 34.0312 18.4156 32.7187C18.8787 31.8749 20.083 29.0624 15.6366 27.0937C11.1901 25.1249 6.00263 28.3124 6.00263 28.3124C6.00263 28.3124 4.42785 27.1874 5.26156 24.7499C5.1504 24.7499 3.77942 24.8062 3.01982 25.9874C2.53812 26.7187 2.38991 27.7687 2.85308 28.6312C3.18656 29.2874 3.74236 29.5874 3.98321 29.7187C3.3533 30.6374 1.94527 32.9624 2.09348 36.0937C2.37138 42.1312 8.22584 45.1874 8.46669 45.3187C9.07808 45.5624 10.0044 45.8812 11.1716 46.1249C12.6537 46.4437 15.3957 46.8187 22.3618 45.4124C24.0662 45.0749 26.4006 44.5312 29.1426 43.7062C29.1426 43.7062 32.9035 42.8249 34.3857 45.6374C34.3857 45.6374 35.4417 40.0124 28.8832 41.0812C29.9763 40.2187 33.5705 37.1062 34.7562 31.6499C36.1828 25.0499 33.0332 19.9687 32.4033 19.0124C31.9587 18.1124 31.6993 17.3249 31.5325 16.7624C31.1991 15.5437 30.81 14.0812 31.3473 12.5062C31.5325 11.9624 31.7919 11.5499 31.9587 11.2874C31.9587 11.2874 31.2176 9.78743 28.9944 10.9124C28.9944 10.9124 28.068 11.5312 27.6419 13.5374C27.1417 13.2937 26.8638 12.9749 26.7156 12.7499C26.0116 11.6999 26.308 9.99368 27.4752 8.51243C27.5678 8.38118 27.6975 8.21243 27.7901 7.98743C27.9754 7.51868 27.9383 7.08743 27.9198 6.86243C27.6604 6.46868 27.364 6.37493 27.2528 6.35618C26.66 6.20618 25.8633 6.73118 25.4928 7.70618C25.3261 7.93118 24.7147 8.71868 24.27 8.56868C23.7328 8.39993 23.7328 6.97493 23.8254 6.18743C23.8995 5.53118 24.0662 4.46244 24.9926 3.73119C25.9189 3.01869 27.012 3.14994 27.2899 3.18744C27.3825 3.56244 27.6234 4.19994 28.1977 4.64994C29.2723 5.51244 31.1064 5.49369 31.6622 4.57494C31.7549 4.42494 31.9401 4.04994 31.7734 3.35619C31.6252 3.14994 31.4029 2.86869 31.0694 2.60619C30.8841 2.45619 30.0874 1.79994 28.2904 1.66869C27.2714 1.59369 25.4928 1.46244 23.566 2.53119C22.1395 3.33744 21.2872 4.42493 20.8796 5.09993C20.8796 5.09993 19.6383 7.21868 19.6383 8.15618C21.0834 8.47493 22.0839 9.26243 22.1024 10.0874C22.1024 10.2562 22.0839 10.4624 21.9542 10.7062C18.9899 9.58118 16.2479 10.2374 15.3031 11.8687C15.1178 12.1687 14.7843 12.9374 15.0066 14.2124C13.4133 14.6062 11.3569 15.3937 10.8381 17.0437C10.8196 17.0812 10.8196 17.1374 10.8011 17.1749C10.412 18.2999 10.5787 19.4437 11.2642 20.1187C11.5792 20.4187 11.9497 20.5687 12.2462 20.6437C12.1906 20.9062 11.8941 22.7812 13.1354 24.1312C13.9136 24.9749 14.9696 25.1812 15.3957 25.2749C16.2479 25.4437 16.9705 25.3499 17.4151 25.2562C17.7486 25.1999 18.9158 24.9374 19.6013 23.9062C19.7866 23.6249 19.8977 23.3624 19.9718 23.1187C19.5087 23.2687 19.0825 23.1937 18.8787 22.9499C18.6194 22.6312 18.8417 22.0874 18.8602 22.0499C19.3604 20.8687 22.8064 21.2999 23.4178 21.3749C24.1218 21.5999 24.9741 21.9749 25.8263 22.6124C28.1607 24.3187 29.0129 26.7562 29.2908 27.7312L24.6035 25.2937C24.6035 25.2937 23.2511 24.7874 23.8069 26.1749C24.4368 27.7312 27.5308 29.9999 28.9388 32.1187C29.4575 32.8874 30.0689 34.1437 30.2357 36.0937C30.1801 36.6374 29.9948 37.5937 29.3649 38.6062C28.5683 39.8624 27.5307 40.4999 27.0305 40.7437C27.0305 40.7437 28.7535 36.6187 24.7517 35.7374C24.7517 35.7374 26.7897 43.1062 18.6008 44.9249C17.656 45.1312 14.1174 45.9749 12.0794 43.9312C11.6162 43.4624 11.3383 42.9749 11.1901 42.6187C10.8196 41.2499 10.9308 40.2749 11.0975 39.6374C11.2272 39.1312 11.4495 38.6812 11.2272 38.3249C10.8937 37.7999 10.0229 37.9124 9.80062 37.9312C7.94794 38.1187 6.33611 40.5562 6.33611 40.5562C6.03968 40.2562 3.9091 38.0249 4.24258 34.7437C4.63165 30.7312 8.28143 28.9687 8.44817 28.8937C9.0966 28.6687 10.0044 28.4249 11.1345 28.3687C12.0794 28.3312 12.9131 28.4624 13.5245 28.5937Z" stroke="#CC982B" stroke-width="0.8" stroke-miterlimit="10"/>
<path d="M32.5514 28.875C32.1808 27.5812 31.4768 25.7625 30.0688 23.9625C27.0119 20.0812 22.8063 19.0312 21.4168 18.75C20.0829 18.5437 18.434 18.4125 16.5442 18.5812C15.6735 18.6562 14.8583 18.7875 14.1358 18.9375C13.0427 19.1625 12.7277 18.9562 12.6351 18.7875C12.4498 18.4125 13.2835 17.6437 13.4873 17.4375C15.9329 15.15 19.9532 15.1687 20.7869 15.1875C21.6206 15.2062 23.3992 15.3187 25.4742 16.0875C26.9192 16.6125 28.7719 17.3062 30.3837 19.1437C32.1994 21.225 32.607 23.5312 32.7552 24.3937C33.0516 26.325 32.7737 27.9375 32.5514 28.875Z" stroke="#CC982B" stroke-width="0.8" stroke-miterlimit="10"/>
<path d="M29.8467 17.4751C30.1331 17.4751 30.3654 17.24 30.3654 16.9501C30.3654 16.6601 30.1331 16.425 29.8467 16.425C29.5602 16.425 29.3279 16.6601 29.3279 16.9501C29.3279 17.24 29.5602 17.4751 29.8467 17.4751Z" stroke="#CC982B" stroke-width="0.8" stroke-miterlimit="10"/>
<path d="M30.3284 31.5562C30.7377 31.5562 31.0695 31.2204 31.0695 30.8062C31.0695 30.3919 30.7377 30.0562 30.3284 30.0562C29.9191 30.0562 29.5873 30.3919 29.5873 30.8062C29.5873 31.2204 29.9191 31.5562 30.3284 31.5562Z" stroke="#CC982B" stroke-width="0.8" stroke-miterlimit="10"/>
<path d="M58.1369 28.5937C59.5264 29.7374 59.8043 30.7687 59.7858 31.4999C59.7858 31.4999 59.7858 31.5187 59.7858 31.5374C59.7302 32.7187 58.7854 34.1249 57.3773 34.5749C55.6729 35.0999 53.9499 34.0312 53.2459 32.7187C52.7827 31.8749 51.5784 29.0624 56.0249 27.0937C60.4713 25.1249 65.6588 28.3124 65.6588 28.3124C65.6588 28.3124 67.2336 27.1874 66.3999 24.7499C66.511 24.7499 67.882 24.8062 68.6416 25.9874C69.1233 26.7187 69.2715 27.7687 68.8084 28.6312C68.4749 29.2874 67.9191 29.5874 67.6782 29.7187C68.3081 30.6374 69.7162 32.9624 69.568 36.0937C69.2901 42.1312 63.4356 45.1874 63.1947 45.3187C62.5834 45.5624 61.657 45.8812 60.4898 46.1249C59.0077 46.4437 56.2657 46.8187 49.2997 45.4124C47.5952 45.0749 45.2608 44.5312 42.5188 43.7062C42.5188 43.7062 38.7579 42.8249 37.2758 45.6374C37.2758 45.6374 36.2197 40.0124 42.7782 41.0812C41.6851 40.2187 38.0909 37.1062 36.9052 31.6499C35.4787 25.0499 38.6282 19.9687 39.2581 19.0124C39.7028 18.1124 39.9622 17.3249 40.1289 16.7624C40.4624 15.5437 40.8514 14.0812 40.3142 12.5062C40.1289 11.9624 39.8695 11.5499 39.7028 11.2874C39.7028 11.2874 40.4438 9.78743 42.6671 10.9124C42.6671 10.9124 43.5934 11.5312 44.0195 13.5374C44.5197 13.2937 44.7976 12.9749 44.9459 12.7499C45.6499 11.6999 45.3534 9.99368 44.1863 8.51243C44.0936 8.38118 43.9639 8.21243 43.8713 7.98743C43.686 7.51868 43.7231 7.08743 43.7416 6.86243C44.001 6.46868 44.2974 6.37493 44.4086 6.35618C45.0014 6.20618 45.7981 6.73118 46.1686 7.70618C46.3354 7.93118 46.9467 8.71868 47.3914 8.56868C47.9287 8.39993 47.9287 6.97493 47.836 6.18743C47.7619 5.53118 47.5952 4.46244 46.6688 3.73119C45.7425 3.01869 44.6494 3.14994 44.3715 3.18744C44.2789 3.56244 44.038 4.19994 43.4637 4.64994C42.3892 5.51244 40.555 5.49369 39.9992 4.57494C39.9066 4.42494 39.7213 4.04994 39.888 3.35619C40.0363 3.14994 40.2586 2.86869 40.5921 2.60619C40.7773 2.45619 41.574 1.79994 43.3711 1.66869C44.3901 1.59369 46.1686 1.46244 48.0954 2.53119C49.522 3.33744 50.3742 4.42493 50.7818 5.09993C50.7818 5.09993 52.0231 7.21868 52.0231 8.15618C50.578 8.47493 49.5776 9.26243 49.559 10.0874C49.559 10.2562 49.5776 10.4624 49.7072 10.7062C52.6715 9.58118 55.4135 10.2374 56.3584 11.8687C56.5436 12.1687 56.8771 12.9374 56.6548 14.2124C58.2481 14.6062 60.3046 15.3937 60.8233 17.0437C60.8418 17.0812 60.8418 17.1374 60.8604 17.1749C61.2494 18.2999 61.0827 19.4437 60.3972 20.1187C60.0822 20.4187 59.7117 20.5687 59.4153 20.6437C59.4709 20.9062 59.7673 22.7812 58.526 24.1312C57.7479 24.9749 56.6918 25.1812 56.2657 25.2749C55.4135 25.4437 54.6909 25.3499 54.2463 25.2562C53.9128 25.1999 52.7456 24.9374 52.0601 23.9062C51.8749 23.6249 51.7637 23.3624 51.6896 23.1187C52.1528 23.2687 52.5789 23.1937 52.7827 22.9499C53.0421 22.6312 52.8197 22.0874 52.8012 22.0499C52.301 20.8687 48.855 21.2999 48.2436 21.3749C47.5396 21.5999 46.6874 21.9749 45.8351 22.6124C43.5008 24.3187 42.6485 26.7562 42.3706 27.7312L47.0579 25.2937C47.0579 25.2937 48.4104 24.7874 47.8546 26.1749C47.2246 27.7312 44.1307 29.9999 42.7226 32.1187C42.2039 32.8874 41.5925 34.1437 41.4258 36.0937C41.4813 36.6374 41.6666 37.5937 42.2965 38.6062C43.0932 39.8624 44.1307 40.4999 44.6309 40.7437C44.6309 40.7437 42.9079 36.6187 46.9097 35.7374C46.9097 35.7374 44.8717 43.1062 53.0606 44.9249C54.0055 45.1312 57.5441 45.9749 59.582 43.9312C60.0452 43.4624 60.3231 42.9749 60.4713 42.6187C60.8418 41.2499 60.7307 40.2749 60.5639 39.6374C60.4343 39.1312 60.2119 38.6812 60.4343 38.3249C60.7677 37.7999 61.6385 37.9124 61.8608 37.9312C63.7135 38.1187 65.3253 40.5562 65.3253 40.5562C65.6217 40.2562 67.7523 38.0249 67.4189 34.7437C67.0298 30.7312 63.38 28.9687 63.2133 28.8937C62.5648 28.6687 61.657 28.4249 60.5269 28.3687C59.582 28.3312 58.7483 28.4624 58.1369 28.5937Z" stroke="#CC982B" stroke-width="0.8" stroke-miterlimit="10"/>
<path d="M39.1099 28.875C39.4804 27.5812 40.1845 25.7625 41.5925 23.9625C44.6494 20.0812 48.855 19.0312 50.2445 18.75C51.5784 18.5437 53.2273 18.4125 55.1171 18.5812C55.9878 18.6562 56.803 18.7875 57.5255 18.9375C58.6186 19.1625 58.9336 18.9562 59.0262 18.7875C59.2115 18.4125 58.3778 17.6437 58.174 17.4375C55.7284 15.15 51.7081 15.1687 50.8744 15.1875C50.0407 15.2062 48.2621 15.3187 46.1871 16.0875C44.7421 16.6125 42.8894 17.3062 41.2775 19.1437C39.4619 21.225 39.0543 23.5312 38.9061 24.3937C38.5912 26.325 38.8876 27.9375 39.1099 28.875Z" stroke="#CC982B" stroke-width="0.8" stroke-miterlimit="10"/>
<path d="M41.8149 17.4751C42.1014 17.4751 42.3336 17.24 42.3336 16.9501C42.3336 16.6601 42.1014 16.425 41.8149 16.425C41.5284 16.425 41.2961 16.6601 41.2961 16.9501C41.2961 17.24 41.5284 17.4751 41.8149 17.4751Z" stroke="#CC982B" stroke-width="0.8" stroke-miterlimit="10"/>
<path d="M41.3332 31.5562C41.7425 31.5562 42.0743 31.2204 42.0743 30.8062C42.0743 30.3919 41.7425 30.0562 41.3332 30.0562C40.9239 30.0562 40.5921 30.3919 40.5921 30.8062C40.5921 31.2204 40.9239 31.5562 41.3332 31.5562Z" stroke="#CC982B" stroke-width="0.8" stroke-miterlimit="10"/>
</svg>


<svg width="119" height="80" viewBox="0 0 119 80" fill="none" xmlns="http://www.w3.org/2000/svg">
<path d="M22.5409 47.6561C20.225 49.5623 19.7618 51.2811 19.7927 52.4998C19.7927 52.4998 19.7927 52.5311 19.7927 52.5623C19.8853 54.5311 21.4601 56.8748 23.8068 57.6248C26.6476 58.4998 29.5193 56.7186 30.6926 54.5311C31.4646 53.1248 33.4716 48.4373 26.0609 45.1561C18.6502 41.8748 10.0044 47.1873 10.0044 47.1873C10.0044 47.1873 7.37976 45.3123 8.76927 41.2498C8.58401 41.2498 6.29904 41.3436 5.03304 43.3123C4.23021 44.5311 3.98319 46.2811 4.75514 47.7186C5.31094 48.8123 6.23728 49.3123 6.6387 49.5311C5.58884 51.0623 3.24212 54.9373 3.48914 60.1561C3.95231 70.2186 13.7097 75.3123 14.1112 75.5311C15.1301 75.9373 16.674 76.4686 18.6193 76.8748C21.0896 77.4061 25.6595 78.0311 37.2696 75.6873C40.1104 75.1248 44.001 74.2186 48.571 72.8436C48.571 72.8436 54.8392 71.3748 57.3094 76.0623C57.3094 76.0623 59.0695 66.6873 48.1387 68.4686C49.9605 67.0311 55.9508 61.8436 57.927 52.7498C60.3046 41.7498 55.0554 33.2811 54.0055 31.6873C53.2644 30.1873 52.8321 28.8748 52.5542 27.9373C51.9984 25.9061 51.35 23.4686 52.2455 20.8436C52.5542 19.9373 52.9865 19.2498 53.2644 18.8123C53.2644 18.8123 52.0293 16.3123 48.324 18.1873C48.324 18.1873 46.7801 19.2186 46.0699 22.5623C45.2362 22.1561 44.773 21.6248 44.526 21.2498C43.3526 19.4998 43.8466 16.6561 45.792 14.1873C45.9463 13.9686 46.1625 13.6873 46.3169 13.3123C46.6257 12.5311 46.5639 11.8123 46.533 11.4373C46.1007 10.7811 45.6067 10.6248 45.4214 10.5936C44.4333 10.3436 43.1056 11.2186 42.488 12.8436C42.2101 13.2186 41.1911 14.5311 40.4501 14.2811C39.5546 13.9998 39.5546 11.6248 39.709 10.3123C39.8325 9.21856 40.1104 7.43731 41.6543 6.21856C43.1982 5.03106 45.02 5.24981 45.4832 5.31231C45.6376 5.93731 46.039 6.99981 46.9962 7.74981C48.7871 9.18731 51.844 9.15606 52.7704 7.62481C52.9248 7.37481 53.2336 6.74981 52.9557 5.59356C52.7086 5.24981 52.3381 4.78106 51.7823 4.34356C51.4735 4.09356 50.1458 2.99981 47.1506 2.78106C45.4523 2.65606 42.488 2.43731 39.2767 4.21856C36.8991 5.56231 35.4787 7.37481 34.7994 8.49981C34.7994 8.49981 32.7306 12.0311 32.7306 13.5936C35.1391 14.1248 36.8065 15.4373 36.8373 16.8123C36.8373 17.0936 36.8065 17.4373 36.5903 17.8436C31.6499 15.9686 27.0799 17.0623 25.5051 19.7811C25.1964 20.2811 24.6406 21.5623 25.0111 23.6873C22.3556 24.3436 18.9281 25.6561 18.0635 28.4061C18.0327 28.4686 18.0327 28.5623 18.0018 28.6248C17.3534 30.4998 17.6313 32.4061 18.7737 33.5311C19.2987 34.0311 19.9162 34.2811 20.4103 34.4061C20.3176 34.8436 19.8236 37.9686 21.8924 40.2186C23.1893 41.6248 24.9493 41.9686 25.6595 42.1248C27.0799 42.4061 28.2842 42.2498 29.0252 42.0936C29.581 41.9998 31.5263 41.5623 32.6688 39.8436C32.9776 39.3748 33.1629 38.9373 33.2864 38.5311C32.5144 38.7811 31.8042 38.6561 31.4646 38.2498C31.0323 37.7186 31.4028 36.8123 31.4337 36.7498C32.2674 34.7811 38.0107 35.4998 39.0297 35.6248C40.203 35.9998 41.6234 36.6248 43.0438 37.6873C46.9344 40.5311 48.3548 44.5936 48.818 46.2186L41.0059 42.1561C41.0059 42.1561 38.7518 41.3123 39.6781 43.6248C40.728 46.2186 45.8846 49.9998 48.2313 53.5311C49.0959 54.8123 50.1149 56.9061 50.3928 60.1561C50.3001 61.0623 49.9914 62.6561 48.9415 64.3436C47.6138 66.4373 45.8846 67.4998 45.0509 67.9061C45.0509 67.9061 47.9225 61.0311 41.2529 59.5623C41.2529 59.5623 44.6495 71.8436 31.0014 74.8748C29.4266 75.2186 23.5289 76.6248 20.1324 73.2186C19.3604 72.4373 18.8972 71.6248 18.6502 71.0311C18.0327 68.7498 18.2179 67.1248 18.4958 66.0623C18.712 65.2186 19.0825 64.4686 18.712 63.8748C18.1562 62.9998 16.7049 63.1873 16.3344 63.2186C13.2466 63.5311 10.5602 67.5936 10.5602 67.5936C10.0661 67.0936 6.51518 63.3748 7.07098 57.9061C7.71942 51.2186 13.8024 48.2811 14.0803 48.1561C15.161 47.7811 16.674 47.3748 18.5576 47.2811C20.1324 47.2186 21.5219 47.4373 22.5409 47.6561Z" stroke="#CC982B" stroke-miterlimit="10"/>
<path d="M54.2523 48.1248C53.6347 45.9686 52.4614 42.9373 50.1146 39.9373C45.0198 33.4685 38.0105 31.7185 35.6946 31.2498C33.4714 30.906 30.7233 30.6873 27.5737 30.9685C26.1225 31.0935 24.7638 31.3123 23.5596 31.5623C21.7378 31.9373 21.2129 31.5935 21.0585 31.3123C20.7497 30.6873 22.1392 29.406 22.4789 29.0623C26.5547 25.2498 33.2553 25.281 34.6448 25.3123C36.0343 25.3435 38.9986 25.531 42.4569 26.8123C44.8654 27.6873 47.9532 28.8435 50.6396 31.906C53.6656 35.3748 54.3449 39.2185 54.5919 40.656C55.086 43.8748 54.6228 46.5623 54.2523 48.1248Z" stroke="#CC982B" stroke-miterlimit="10"/>
<path d="M49.7444 29.125C50.2219 29.125 50.609 28.7333 50.609 28.25C50.609 27.7667 50.2219 27.375 49.7444 27.375C49.2669 27.375 48.8798 27.7667 48.8798 28.25C48.8798 28.7333 49.2669 29.125 49.7444 29.125Z" stroke="#CC982B" stroke-miterlimit="10"/>
<path d="M50.5473 52.5935C51.2295 52.5935 51.7824 52.0339 51.7824 51.3435C51.7824 50.6531 51.2295 50.0935 50.5473 50.0935C49.8652 50.0935 49.3122 50.6531 49.3122 51.3435C49.3122 52.0339 49.8652 52.5935 50.5473 52.5935Z" stroke="#CC982B" stroke-miterlimit="10"/>
<path d="M96.8949 47.6561C99.2107 49.5623 99.6739 51.2811 99.643 52.4998C99.643 52.4998 99.643 52.5311 99.643 52.5623C99.5504 54.5311 97.9756 56.8748 95.6289 57.6248C92.7881 58.4998 89.9164 56.7186 88.7431 54.5311C87.9711 53.1248 85.9641 48.4373 93.3748 45.1561C100.785 41.8748 109.431 47.1873 109.431 47.1873C109.431 47.1873 112.056 45.3123 110.666 41.2498C110.852 41.2498 113.137 41.3436 114.403 43.3123C115.206 44.5311 115.453 46.2811 114.681 47.7186C114.125 48.8123 113.198 49.3123 112.797 49.5311C113.847 51.0623 116.194 54.9373 115.947 60.1561C115.483 70.2186 105.726 75.3123 105.325 75.5311C104.306 75.9373 102.762 76.4686 100.816 76.8748C98.3461 77.4061 93.7762 78.0311 82.1661 75.6873C79.3253 75.1248 75.4347 74.2186 70.8647 72.8436C70.8647 72.8436 64.5965 71.3748 62.1263 76.0623C62.1263 76.0623 60.3662 66.6873 71.297 68.4686C69.4752 67.0311 63.4849 61.8436 61.5087 52.7498C59.1311 41.7498 64.3804 33.2811 65.4302 31.6873C66.1713 30.1873 66.6036 28.8748 66.8815 27.9373C67.4373 25.9061 68.0857 23.4686 67.1903 20.8436C66.8815 19.9373 66.4492 19.2498 66.1713 18.8123C66.1713 18.8123 67.4064 16.3123 71.1117 18.1873C71.1117 18.1873 72.6557 19.2186 73.3658 22.5623C74.1996 22.1561 74.6627 21.6248 74.9097 21.2498C76.0831 19.4998 75.5891 16.6561 73.6437 14.1873C73.4894 13.9686 73.2732 13.6873 73.1188 13.3123C72.81 12.5311 72.8718 11.8123 72.9027 11.4373C73.335 10.7811 73.829 10.6248 74.0143 10.5936C75.0024 10.3436 76.3301 11.2186 76.9477 12.8436C77.2256 13.2186 78.2446 14.5311 78.9856 14.2811C79.8811 13.9998 79.8811 11.6248 79.7267 10.3123C79.6032 9.21856 79.3253 7.43731 77.7814 6.21856C76.2375 5.03106 74.4157 5.24981 73.9525 5.31231C73.7981 5.93731 73.3967 6.99981 72.4395 7.74981C70.6486 9.18731 67.5917 9.15606 66.6653 7.62481C66.5109 7.37481 66.2021 6.74981 66.4801 5.59356C66.7271 5.24981 67.0976 4.78106 67.6534 4.34356C67.9622 4.09356 69.29 2.99981 72.2851 2.78106C73.9834 2.65606 76.9477 2.43731 80.159 4.21856C82.5366 5.56231 83.957 7.37481 84.6363 8.49981C84.6363 8.49981 86.7051 12.0311 86.7051 13.5936C84.2966 14.1248 82.6292 15.4373 82.5984 16.8123C82.5984 17.0936 82.6292 17.4373 82.8454 17.8436C87.7859 15.9686 92.3558 17.0623 93.9306 19.7811C94.2394 20.2811 94.7952 21.5623 94.4246 23.6873C97.0801 24.3436 100.508 25.6561 101.372 28.4061C101.403 28.4686 101.403 28.5623 101.434 28.6248C102.082 30.4998 101.804 32.4061 100.662 33.5311C100.137 34.0311 99.5195 34.2811 99.0255 34.4061C99.1181 34.8436 99.6121 37.9686 97.5433 40.2186C96.2464 41.6248 94.4864 41.9686 93.7762 42.1248C92.3558 42.4061 91.1516 42.2498 90.4105 42.0936C89.8547 41.9998 87.9094 41.5623 86.7669 39.8436C86.4581 39.3748 86.2728 38.9373 86.1493 38.5311C86.9213 38.7811 87.6315 38.6561 87.9711 38.2498C88.4034 37.7186 88.0329 36.8123 88.002 36.7498C87.1683 34.7811 81.425 35.4998 80.406 35.6248C79.2327 35.9998 77.8123 36.6248 76.3919 37.6873C72.5013 40.5311 71.0809 44.5936 70.6177 46.2186L78.4298 42.1561C78.4298 42.1561 80.6839 41.3123 79.7576 43.6248C78.7077 46.2186 73.5511 49.9998 71.2044 53.5311C70.3398 54.8123 69.3208 56.9061 69.0429 60.1561C69.1356 61.0623 69.4443 62.6561 70.4942 64.3436C71.8219 66.4373 73.5511 67.4998 74.3848 67.9061C74.3848 67.9061 71.5132 61.0311 78.1828 59.5623C78.1828 59.5623 74.7862 71.8436 88.4343 74.8748C90.0091 75.2186 95.9068 76.6248 99.3033 73.2186C100.075 72.4373 100.538 71.6248 100.786 71.0311C101.403 68.7498 101.218 67.1248 100.94 66.0623C100.724 65.2186 100.353 64.4686 100.724 63.8748C101.28 62.9998 102.731 63.1873 103.101 63.2186C106.189 63.5311 108.876 67.5936 108.876 67.5936C109.37 67.0936 112.921 63.3748 112.365 57.9061C111.716 51.2186 105.633 48.2811 105.355 48.1561C104.275 47.7811 102.762 47.3748 100.878 47.2811C99.3034 47.2186 97.9138 47.4373 96.8949 47.6561Z" stroke="#CC982B" stroke-miterlimit="10"/>
<path d="M65.1832 48.1248C65.8007 45.9686 66.9741 42.9373 69.3208 39.9373C74.4157 33.4685 81.425 31.7185 83.7408 31.2498C85.9641 30.906 88.7122 30.6873 91.8618 30.9685C93.313 31.0935 94.6716 31.3123 95.8759 31.5623C97.6977 31.9373 98.2226 31.5935 98.377 31.3123C98.6858 30.6873 97.2963 29.406 96.9566 29.0623C92.8807 25.2498 86.1802 25.281 84.7907 25.3123C83.4012 25.3435 80.4369 25.531 76.9786 26.8123C74.5701 27.6873 71.4823 28.8435 68.7959 31.906C65.7699 35.3748 65.0905 39.2185 64.8435 40.656C64.3186 43.8748 64.8126 46.5623 65.1832 48.1248Z" stroke="#CC982B" stroke-miterlimit="10"/>
<path d="M69.6915 29.125C70.169 29.125 70.556 28.7333 70.556 28.25C70.556 27.7667 70.169 27.375 69.6915 27.375C69.214 27.375 68.8269 27.7667 68.8269 28.25C68.8269 28.7333 69.214 29.125 69.6915 29.125Z" stroke="#CC982B" stroke-miterlimit="10"/>
<path d="M68.8887 52.5935C69.5708 52.5935 70.1238 52.0339 70.1238 51.3435C70.1238 50.6531 69.5708 50.0935 68.8887 50.0935C68.2065 50.0935 67.6535 50.6531 67.6535 51.3435C67.6535 52.0339 68.2065 52.5935 68.8887 52.5935Z" stroke="#CC982B" stroke-miterlimit="10"/>
</svg>
