<svg width="19" height="20" viewBox="0 0 19 20" fill="none" xmlns="http://www.w3.org/2000/svg">
<path d="M12.5714 10.1429C12.5714 11.8739 11.1596 13.2857 9.42857 13.2857C7.69755 13.2857 6.28571 11.8739 6.28571 10.1429C6.28571 8.41183 7.69755 7 9.42857 7C11.1596 7 12.5714 8.41183 12.5714 10.1429ZM14.2656 10.1429C14.2656 7.46652 12.1049 5.3058 9.42857 5.3058C6.75223 5.3058 4.59152 7.46652 4.59152 10.1429C4.59152 12.8192 6.75223 14.9799 9.42857 14.9799C12.1049 14.9799 14.2656 12.8192 14.2656 10.1429ZM15.5915 5.10938C15.5915 4.48326 15.0882 3.97991 14.4621 3.97991C13.8359 3.97991 13.3326 4.48326 13.3326 5.10938C13.3326 5.73549 13.8359 6.23884 14.4621 6.23884C15.0882 6.23884 15.5915 5.73549 15.5915 5.10938ZM9.42857 2.40848C10.8036 2.40848 13.75 2.29799 14.99 2.78906C15.4196 2.96094 15.7388 3.16964 16.0703 3.50112C16.4018 3.83259 16.6105 4.15178 16.7824 4.58147C17.2734 5.82143 17.1629 8.76786 17.1629 10.1429C17.1629 11.5179 17.2734 14.4643 16.7824 15.7042C16.6105 16.1339 16.4018 16.4531 16.0703 16.7846C15.7388 17.1161 15.4196 17.3248 14.99 17.4967C13.75 17.9877 10.8036 17.8772 9.42857 17.8772C8.05357 17.8772 5.10714 17.9877 3.86719 17.4967C3.4375 17.3248 3.1183 17.1161 2.78683 16.7846C2.45536 16.4531 2.24665 16.1339 2.07478 15.7042C1.58371 14.4643 1.6942 11.5179 1.6942 10.1429C1.6942 8.76786 1.58371 5.82143 2.07478 4.58147C2.24665 4.15178 2.45536 3.83259 2.78683 3.50112C3.1183 3.16964 3.4375 2.96094 3.86719 2.78906C5.10714 2.29799 8.05357 2.40848 9.42857 2.40848ZM18.8571 10.1429C18.8571 8.84152 18.8694 7.55245 18.7958 6.25112C18.7221 4.74107 18.3783 3.4029 17.2734 2.29799C16.1685 1.19308 14.8304 0.849329 13.3203 0.775669C12.019 0.702008 10.7299 0.714285 9.42857 0.714285C8.12723 0.714285 6.83817 0.702008 5.53683 0.775669C4.02679 0.849329 2.68862 1.19308 1.58371 2.29799C0.478795 3.4029 0.135045 4.74107 0.0613839 6.25112C-0.0122768 7.55245 0 8.84152 0 10.1429C0 11.4442 -0.0122768 12.7333 0.0613839 14.0346C0.135045 15.5446 0.478795 16.8828 1.58371 17.9877C2.68862 19.0926 4.02679 19.4364 5.53683 19.51C6.83817 19.5837 8.12723 19.5714 9.42857 19.5714C10.7299 19.5714 12.019 19.5837 13.3203 19.51C14.8304 19.4364 16.1685 19.0926 17.2734 17.9877C18.3783 16.8828 18.7221 15.5446 18.7958 14.0346C18.8694 12.7333 18.8571 11.4442 18.8571 10.1429Z" fill="#CC982B"/>
</svg>
