<svg width="18" height="21" viewBox="0 0 18 21" fill="none" xmlns="http://www.w3.org/2000/svg">
<path d="M17.1429 17.1652C17.1429 13.6429 16.2723 9.57143 12.7634 9.57143C11.6786 10.6295 10.2054 11.2857 8.57143 11.2857C6.9375 11.2857 5.46429 10.6295 4.37946 9.57143C0.870536 9.57143 0 13.6429 0 17.1652C0 19.1205 1.28571 20.7143 2.85268 20.7143H14.2902C15.8571 20.7143 17.1429 19.1205 17.1429 17.1652ZM13.7143 5.28571C13.7143 2.44643 11.4107 0.142856 8.57143 0.142856C5.73214 0.142856 3.42857 2.44643 3.42857 5.28571C3.42857 8.125 5.73214 10.4286 8.57143 10.4286C11.4107 10.4286 13.7143 8.125 13.7143 5.28571Z" fill="black"/>
</svg>
