<svg width="17" height="21" viewBox="0 0 17 21" fill="none" xmlns="http://www.w3.org/2000/svg">
<path d="M10.8371 14.7411C10.8371 14.25 10.692 13.9933 10.4018 13.9933C10.2344 13.9933 10.067 14.0714 9.89955 14.2388V17.5982C10.067 17.7656 10.2344 17.8438 10.4018 17.8438C10.692 17.8438 10.8371 17.5982 10.8371 17.096V14.7411ZM14.6094 14.7522C14.6094 14.25 14.442 13.9933 14.1071 13.9933C13.7723 13.9933 13.6049 14.25 13.6049 14.7522V15.2656H14.6094V14.7522ZM3.82813 12.3192V18.6696H2.71205V12.3192H1.54018V11.2701H5.02232V12.3192H3.82813ZM7.04241 18.6696V18.067C6.64062 18.5246 6.26116 18.7478 5.90402 18.7478C5.58036 18.7478 5.34598 18.6138 5.2567 18.3348C5.20089 18.1674 5.16741 17.9107 5.16741 17.5201V13.1562H6.16071V17.2188C6.16071 17.4531 6.16071 17.5759 6.17188 17.6094C6.1942 17.7656 6.27232 17.8438 6.40625 17.8438C6.60714 17.8438 6.8192 17.6875 7.04241 17.375V13.1562H8.03571V18.6696H7.04241ZM11.8304 17.0179C11.8304 17.5312 11.808 17.8996 11.7299 18.1339C11.6071 18.5357 11.3281 18.7478 10.9375 18.7478C10.5804 18.7478 10.2344 18.5469 9.89955 18.1339V18.6696H8.90625V11.2701H9.89955V13.692C10.2232 13.2902 10.5692 13.0893 10.9375 13.0893C11.3281 13.0893 11.6071 13.3013 11.7299 13.7143C11.808 13.9375 11.8304 14.3058 11.8304 14.8192V17.0179ZM15.6027 16.9062C15.6027 17.2299 15.6027 17.4531 15.5804 17.5536C15.558 17.7768 15.4688 17.9777 15.346 18.1562C15.0781 18.5469 14.6652 18.7478 14.1406 18.7478C13.6161 18.7478 13.2254 18.558 12.9353 18.1786C12.7232 17.9107 12.6116 17.4754 12.6116 16.8839V14.9531C12.6116 14.3616 12.7121 13.9375 12.9241 13.6585C13.2143 13.279 13.6049 13.0893 14.1183 13.0893C14.6205 13.0893 15.0112 13.279 15.3013 13.6585C15.5022 13.9375 15.6027 14.3616 15.6027 14.9531V16.1027H13.6049V17.0737C13.6049 17.5871 13.7723 17.8438 14.1183 17.8438C14.3638 17.8438 14.5089 17.7098 14.5647 17.442C14.5759 17.3862 14.5871 17.1629 14.5871 16.7612H15.6027V16.9062ZM8.81696 6.71652C8.81696 7.22991 8.67188 7.49777 8.33705 7.49777C8.01339 7.49777 7.85714 7.22991 7.85714 6.71652V4.37277C7.85714 3.85937 8.01339 3.60268 8.33705 3.60268C8.67188 3.60268 8.81696 3.85937 8.81696 4.37277V6.71652ZM16.8415 15.0982C16.8415 13.8036 16.8415 12.442 16.5513 11.192C16.3504 10.3103 15.625 9.66295 14.7656 9.5625C12.7121 9.33929 10.6362 9.33929 8.57143 9.33929C6.5067 9.33929 4.4308 9.33929 2.38839 9.5625C1.51786 9.66295 0.803571 10.3103 0.591518 11.192C0.3125 12.442 0.301339 13.8036 0.301339 15.0982C0.301339 16.3817 0.301339 17.7545 0.591518 19.0045C0.792411 19.8862 1.51786 20.5335 2.37723 20.6228C4.4308 20.8571 6.5067 20.8571 8.57143 20.8571C10.6362 20.8571 12.7121 20.8571 14.7656 20.6228C15.625 20.5335 16.3393 19.8862 16.5513 19.0045C16.8304 17.7545 16.8415 16.3817 16.8415 15.0982ZM5.70312 0.857141L4.9442 3.79241L4.15179 0.857141H2.96875C3.20312 1.54911 3.44866 2.25223 3.6942 2.9442C4.05134 3.98214 4.27455 4.76339 4.375 5.31027V8.33482H5.49107V5.31027L6.84152 0.857141H5.70312ZM9.83259 4.57366C9.83259 3.98214 9.73214 3.54687 9.52009 3.26786C9.24107 2.88839 8.85045 2.69866 8.33705 2.69866C7.83482 2.69866 7.4442 2.88839 7.16518 3.26786C6.95313 3.54687 6.85268 3.98214 6.85268 4.57366V6.52679C6.85268 7.1183 6.95313 7.55357 7.16518 7.84375C7.4442 8.22321 7.83482 8.41295 8.33705 8.41295C8.85045 8.41295 9.24107 8.22321 9.52009 7.84375C9.73214 7.56473 9.83259 7.1183 9.83259 6.52679V4.57366ZM13.5714 2.76562H12.5558V7.01786C12.3326 7.34152 12.1205 7.49777 11.9196 7.49777C11.7857 7.49777 11.7076 7.40848 11.6853 7.25223C11.6741 7.22991 11.6741 7.09598 11.6741 6.86161V2.76562H10.6585V7.16295C10.6585 7.56473 10.692 7.83259 10.7478 8C10.8482 8.27902 11.0826 8.41295 11.4062 8.41295C11.7746 8.41295 12.154 8.18973 12.5558 7.72098V8.33482H13.5714V2.76562Z" fill="black"/>
</svg>
